<svg width="1312" height="145" viewBox="0 0 1312 145" fill="none" xmlns="http://www.w3.org/2000/svg">
<g clip-path="url(#clip0_26_640)">
<rect width="1312" height="145" rx="15" fill="#EBEBEB"/>
<path d="M653.5 1.5V88.5H802V29H969V174H1118.5V100H1236.5V-25.5H1373.5V100" stroke="#CFCFCF" stroke-width="25"/>
<path d="M50.08 63.776V68H37.168V63.776H41.584V46.88C41.328 48.032 40.912 48.928 40.336 49.568C39.76 50.176 39.152 50.608 38.512 50.864C37.872 51.12 37.296 51.28 36.784 51.344C36.272 51.376 35.936 51.392 35.776 51.392V46.064C35.968 46.096 36.384 46.096 37.024 46.064C37.664 46 38.352 45.808 39.088 45.488C39.856 45.168 40.528 44.656 41.104 43.952C41.68 43.248 42 42.256 42.064 40.976H46.384V63.776H50.08ZM65.1498 68.672C61.1818 68.672 58.2378 67.408 56.3178 64.88C54.3978 62.32 53.4378 58.88 53.4378 54.56C53.4378 51.712 53.8378 49.248 54.6378 47.168C55.4698 45.056 56.7498 43.424 58.4778 42.272C60.2058 41.088 62.4298 40.496 65.1498 40.496C69.1818 40.496 72.1418 41.776 74.0298 44.336C75.9178 46.864 76.8618 50.272 76.8618 54.56C76.8618 57.344 76.4458 59.808 75.6138 61.952C74.7818 64.064 73.5018 65.712 71.7738 66.896C70.0458 68.08 67.8378 68.672 65.1498 68.672ZM65.1498 64.592C67.6138 64.592 69.4218 63.744 70.5738 62.048C71.7258 60.32 72.3018 57.824 72.3018 54.56C72.3018 51.296 71.7258 48.816 70.5738 47.12C69.4538 45.424 67.6458 44.576 65.1498 44.576C62.7178 44.576 60.9098 45.392 59.7258 47.024C58.5738 48.656 57.9978 51.168 57.9978 54.56C57.9978 57.824 58.5578 60.32 59.6778 62.048C60.8298 63.744 62.6538 64.592 65.1498 64.592ZM91.306 68.672C87.338 68.672 84.394 67.408 82.474 64.88C80.554 62.32 79.594 58.88 79.594 54.56C79.594 51.712 79.994 49.248 80.794 47.168C81.626 45.056 82.906 43.424 84.634 42.272C86.362 41.088 88.586 40.496 91.306 40.496C95.338 40.496 98.298 41.776 100.186 44.336C102.074 46.864 103.018 50.272 103.018 54.56C103.018 57.344 102.602 59.808 101.77 61.952C100.938 64.064 99.658 65.712 97.93 66.896C96.202 68.08 93.994 68.672 91.306 68.672ZM91.306 64.592C93.77 64.592 95.578 63.744 96.73 62.048C97.882 60.32 98.458 57.824 98.458 54.56C98.458 51.296 97.882 48.816 96.73 47.12C95.61 45.424 93.802 44.576 91.306 44.576C88.874 44.576 87.066 45.392 85.882 47.024C84.73 48.656 84.154 51.168 84.154 54.56C84.154 57.824 84.714 60.32 85.834 62.048C86.986 63.744 88.81 64.592 91.306 64.592ZM107.046 72.896V69.68H108.198C109.03 69.68 109.606 69.552 109.926 69.296C110.246 69.04 110.406 68.608 110.406 68C109.19 68.064 108.342 67.84 107.862 67.328C107.382 66.784 107.142 66.096 107.142 65.264C107.142 64.496 107.35 63.856 107.766 63.344C108.182 62.8 108.902 62.528 109.926 62.528C110.758 62.528 111.398 62.784 111.846 63.296C112.326 63.776 112.566 64.768 112.566 66.272C112.566 68.096 112.246 69.648 111.606 70.928C110.966 72.24 109.846 72.896 108.246 72.896H107.046ZM128.244 68.672C124.276 68.672 121.332 67.408 119.412 64.88C117.492 62.32 116.532 58.88 116.532 54.56C116.532 51.712 116.932 49.248 117.732 47.168C118.564 45.056 119.844 43.424 121.572 42.272C123.3 41.088 125.524 40.496 128.244 40.496C132.276 40.496 135.236 41.776 137.124 44.336C139.012 46.864 139.956 50.272 139.956 54.56C139.956 57.344 139.54 59.808 138.708 61.952C137.876 64.064 136.596 65.712 134.868 66.896C133.14 68.08 130.932 68.672 128.244 68.672ZM128.244 64.592C130.708 64.592 132.516 63.744 133.668 62.048C134.82 60.32 135.396 57.824 135.396 54.56C135.396 51.296 134.82 48.816 133.668 47.12C132.548 45.424 130.74 44.576 128.244 44.576C125.812 44.576 124.004 45.392 122.82 47.024C121.668 48.656 121.092 51.168 121.092 54.56C121.092 57.824 121.652 60.32 122.772 62.048C123.924 63.744 125.748 64.592 128.244 64.592ZM154.4 68.672C150.432 68.672 147.488 67.408 145.568 64.88C143.648 62.32 142.688 58.88 142.688 54.56C142.688 51.712 143.088 49.248 143.888 47.168C144.72 45.056 146 43.424 147.728 42.272C149.456 41.088 151.68 40.496 154.4 40.496C158.432 40.496 161.392 41.776 163.28 44.336C165.168 46.864 166.112 50.272 166.112 54.56C166.112 57.344 165.696 59.808 164.864 61.952C164.032 64.064 162.752 65.712 161.024 66.896C159.296 68.08 157.088 68.672 154.4 68.672ZM154.4 64.592C156.864 64.592 158.672 63.744 159.824 62.048C160.976 60.32 161.552 57.824 161.552 54.56C161.552 51.296 160.976 48.816 159.824 47.12C158.704 45.424 156.896 44.576 154.4 44.576C151.968 44.576 150.16 45.392 148.976 47.024C147.824 48.656 147.248 51.168 147.248 54.56C147.248 57.824 147.808 60.32 148.928 62.048C150.08 63.744 151.904 64.592 154.4 64.592ZM180.556 68.672C176.588 68.672 173.644 67.408 171.724 64.88C169.804 62.32 168.844 58.88 168.844 54.56C168.844 51.712 169.244 49.248 170.044 47.168C170.876 45.056 172.156 43.424 173.884 42.272C175.612 41.088 177.836 40.496 180.556 40.496C184.588 40.496 187.548 41.776 189.436 44.336C191.324 46.864 192.268 50.272 192.268 54.56C192.268 57.344 191.852 59.808 191.02 61.952C190.188 64.064 188.908 65.712 187.18 66.896C185.452 68.08 183.244 68.672 180.556 68.672ZM180.556 64.592C183.02 64.592 184.828 63.744 185.98 62.048C187.132 60.32 187.708 57.824 187.708 54.56C187.708 51.296 187.132 48.816 185.98 47.12C184.86 45.424 183.052 44.576 180.556 44.576C178.124 44.576 176.316 45.392 175.132 47.024C173.98 48.656 173.404 51.168 173.404 54.56C173.404 57.824 173.964 60.32 175.084 62.048C176.236 63.744 178.06 64.592 180.556 64.592ZM200.664 64.112V58.928H195.48V55.52H200.664V50.336H204.12V55.52H209.256V58.928H204.12V64.112H200.664Z" fill="black"/>
<path d="M36.496 106.401H44.392V107.337H35.392V93.8247H44.176V94.8087H36.496V100.017H42.64V100.977H36.496V106.401ZM46.1626 107.337V97.5927H47.0746L47.1706 100.185H47.2186C47.2666 100.041 47.3466 99.8327 47.4586 99.5607C47.5866 99.2727 47.7706 98.9847 48.0106 98.6967C48.2506 98.3927 48.5706 98.1367 48.9706 97.9287C49.3706 97.7047 49.8666 97.5927 50.4586 97.5927C51.0986 97.5927 51.6106 97.7207 51.9946 97.9767C52.3946 98.2167 52.7066 98.5367 52.9306 98.9367C53.1546 99.3367 53.3146 99.7527 53.4106 100.185H53.4586C53.5066 100.041 53.5946 99.8327 53.7226 99.5607C53.8666 99.2727 54.0666 98.9847 54.3226 98.6967C54.5946 98.3927 54.9386 98.1367 55.3546 97.9287C55.7706 97.7047 56.2746 97.5927 56.8666 97.5927C57.5066 97.5927 58.0266 97.7207 58.4266 97.9767C58.8266 98.2327 59.1386 98.5607 59.3626 98.9607C59.5866 99.3447 59.7466 99.7607 59.8426 100.209C59.9386 100.657 59.9946 101.089 60.0106 101.505C60.0266 101.905 60.0346 102.241 60.0346 102.513V107.337H59.0506V102.489C59.0506 102.217 59.0346 101.873 59.0026 101.457C58.9866 101.025 58.8986 100.593 58.7386 100.161C58.5946 99.7127 58.3546 99.3447 58.0186 99.0567C57.6826 98.7527 57.2026 98.6007 56.5786 98.6007C55.8906 98.6007 55.3306 98.7927 54.8986 99.1767C54.4666 99.5607 54.1386 100.065 53.9146 100.689C53.7066 101.313 53.6026 101.993 53.6026 102.729V107.337H52.6186V102.489C52.6186 102.217 52.6026 101.873 52.5706 101.457C52.5546 101.025 52.4666 100.593 52.3066 100.161C52.1626 99.7127 51.9226 99.3447 51.5866 99.0567C51.2506 98.7527 50.7706 98.6007 50.1466 98.6007C49.4586 98.6007 48.8986 98.7927 48.4666 99.1767C48.0346 99.5607 47.7066 100.065 47.4826 100.689C47.2746 101.313 47.1706 101.993 47.1706 102.729V107.337H46.1626ZM67.1418 107.577C66.5018 107.577 65.9498 107.465 65.4858 107.241C65.0378 107.017 64.6698 106.745 64.3818 106.425C64.0938 106.105 63.8778 105.809 63.7338 105.537C63.5898 105.265 63.4938 105.073 63.4458 104.961H63.3978V111.177H62.2938V97.5927H63.2298L63.4218 100.233H63.4698C63.5018 100.121 63.5818 99.9287 63.7098 99.6567C63.8538 99.3687 64.0618 99.0727 64.3338 98.7687C64.6218 98.4487 64.9898 98.1767 65.4378 97.9527C65.9018 97.7127 66.4618 97.5927 67.1178 97.5927C68.0618 97.5927 68.8538 97.8167 69.4938 98.2647C70.1498 98.7127 70.6458 99.3127 70.9818 100.065C71.3338 100.817 71.5098 101.665 71.5098 102.609C71.5098 103.553 71.3338 104.401 70.9818 105.153C70.6298 105.905 70.1258 106.497 69.4698 106.929C68.8298 107.361 68.0538 107.577 67.1418 107.577ZM67.0218 106.545C67.8218 106.545 68.4698 106.361 68.9658 105.993C69.4778 105.609 69.8458 105.113 70.0698 104.505C70.3098 103.897 70.4298 103.257 70.4298 102.585C70.4298 101.913 70.2938 101.281 70.0218 100.689C69.7658 100.081 69.3738 99.5927 68.8458 99.2247C68.3178 98.8407 67.6538 98.6487 66.8538 98.6487C65.8938 98.6487 65.0858 99.0007 64.4298 99.7047C63.7898 100.393 63.4698 101.353 63.4698 102.585C63.4698 103.849 63.8138 104.825 64.5018 105.513C65.1898 106.201 66.0298 106.545 67.0218 106.545ZM73.5454 107.337V93.8247H74.6494V107.337H73.5454ZM81.1617 107.577C79.6417 107.577 78.4977 107.113 77.7297 106.185C76.9777 105.241 76.6017 104.049 76.6017 102.609C76.6017 101.137 76.9857 99.9367 77.7537 99.0087C78.5217 98.0647 79.6577 97.5927 81.1617 97.5927C82.6337 97.5927 83.7537 98.0567 84.5217 98.9847C85.3057 99.8967 85.6977 101.105 85.6977 102.609C85.6977 103.553 85.5297 104.401 85.1937 105.153C84.8737 105.889 84.3777 106.481 83.7057 106.929C83.0497 107.361 82.2017 107.577 81.1617 107.577ZM81.1617 106.593C82.0577 106.593 82.7537 106.393 83.2497 105.993C83.7457 105.593 84.0897 105.089 84.2817 104.481C84.4897 103.857 84.5937 103.225 84.5937 102.585C84.5937 101.929 84.4897 101.297 84.2817 100.689C84.0897 100.065 83.7457 99.5527 83.2497 99.1527C82.7537 98.7367 82.0577 98.5287 81.1617 98.5287C80.2657 98.5287 79.5697 98.7367 79.0737 99.1527C78.5777 99.5527 78.2257 100.065 78.0177 100.689C77.8097 101.297 77.7057 101.929 77.7057 102.585C77.7057 103.225 77.8097 103.857 78.0177 104.481C78.2257 105.089 78.5777 105.593 79.0737 105.993C79.5697 106.393 80.2657 106.593 81.1617 106.593ZM86.6384 111.609V110.697H87.8864C88.2064 110.697 88.4624 110.601 88.6544 110.409C88.8464 110.217 89.0944 109.809 89.3984 109.185L90.5984 106.569L86.7824 97.5927H87.9344L91.1744 105.369L94.6064 97.5927H95.7824L90.3584 109.377C90.0704 110.017 89.8144 110.497 89.5904 110.817C89.3664 111.137 89.1264 111.345 88.8704 111.441C88.6144 111.553 88.3024 111.609 87.9344 111.609H86.6384ZM100.968 107.577C99.9275 107.577 99.0635 107.329 98.3755 106.833C97.7035 106.337 97.1995 105.705 96.8635 104.937C96.5275 104.153 96.3675 103.345 96.3835 102.513C96.3835 101.649 96.5595 100.841 96.9115 100.089C97.2635 99.3367 97.7755 98.7367 98.4475 98.2887C99.1355 97.8247 99.9675 97.5927 100.944 97.5927C102.16 97.5927 103.16 97.9927 103.944 98.7927C104.744 99.5767 105.192 100.633 105.288 101.961C105.304 102.041 105.312 102.137 105.312 102.249C105.312 102.361 105.312 102.465 105.312 102.561H97.4395C97.4395 103.793 97.7435 104.777 98.3515 105.513C98.9595 106.249 99.8315 106.617 100.968 106.617C101.784 106.617 102.488 106.401 103.08 105.969C103.688 105.537 104.064 104.953 104.208 104.217H105.288C105.096 105.209 104.608 106.017 103.824 106.641C103.056 107.265 102.104 107.577 100.968 107.577ZM97.5115 101.841H104.184C104.168 101.425 104.048 100.961 103.824 100.449C103.616 99.9367 103.272 99.4887 102.792 99.1047C102.328 98.7207 101.712 98.5287 100.944 98.5287C99.8875 98.5287 99.0795 98.8567 98.5195 99.5127C97.9595 100.169 97.6235 100.945 97.5115 101.841ZM111.655 107.577C110.615 107.577 109.751 107.329 109.063 106.833C108.391 106.337 107.887 105.705 107.551 104.937C107.215 104.153 107.055 103.345 107.071 102.513C107.071 101.649 107.247 100.841 107.599 100.089C107.951 99.3367 108.463 98.7367 109.135 98.2887C109.823 97.8247 110.655 97.5927 111.631 97.5927C112.847 97.5927 113.847 97.9927 114.631 98.7927C115.431 99.5767 115.879 100.633 115.975 101.961C115.991 102.041 115.999 102.137 115.999 102.249C115.999 102.361 115.999 102.465 115.999 102.561H108.127C108.127 103.793 108.431 104.777 109.039 105.513C109.647 106.249 110.519 106.617 111.655 106.617C112.471 106.617 113.175 106.401 113.767 105.969C114.375 105.537 114.751 104.953 114.895 104.217H115.975C115.783 105.209 115.295 106.017 114.511 106.641C113.743 107.265 112.791 107.577 111.655 107.577ZM108.199 101.841H114.871C114.855 101.425 114.735 100.961 114.511 100.449C114.303 99.9367 113.959 99.4887 113.479 99.1047C113.015 98.7207 112.399 98.5287 111.631 98.5287C110.575 98.5287 109.767 98.8567 109.207 99.5127C108.647 100.169 108.311 100.945 108.199 101.841ZM121.719 107.577C120.903 107.577 120.239 107.441 119.727 107.169C119.215 106.881 118.823 106.545 118.551 106.161C118.279 105.777 118.087 105.409 117.975 105.057C117.879 104.705 117.831 104.449 117.831 104.289H118.911C118.911 104.305 118.919 104.441 118.935 104.697C118.967 104.937 119.063 105.217 119.223 105.537C119.383 105.857 119.655 106.137 120.039 106.377C120.439 106.601 121.007 106.713 121.743 106.713C122.255 106.713 122.735 106.657 123.183 106.545C123.647 106.417 124.015 106.225 124.287 105.969C124.575 105.697 124.719 105.345 124.719 104.913C124.703 104.401 124.535 104.009 124.215 103.737C123.895 103.449 123.479 103.233 122.967 103.089C122.455 102.945 121.919 102.817 121.359 102.705C120.799 102.593 120.263 102.441 119.751 102.249C119.255 102.057 118.847 101.777 118.527 101.409C118.223 101.041 118.079 100.537 118.095 99.8967C118.095 99.1447 118.447 98.5287 119.151 98.0487C119.855 97.5687 120.759 97.3287 121.863 97.3287C122.279 97.3287 122.711 97.3767 123.159 97.4727C123.623 97.5687 124.055 97.7367 124.455 97.9767C124.855 98.2167 125.175 98.5527 125.415 98.9847C125.655 99.4007 125.759 99.9367 125.727 100.593H124.671C124.703 100.097 124.623 99.6967 124.431 99.3927C124.239 99.0727 123.983 98.8327 123.663 98.6727C123.359 98.5127 123.039 98.4087 122.703 98.3607C122.367 98.2967 122.063 98.2647 121.791 98.2647C121.039 98.2647 120.399 98.4087 119.871 98.6967C119.359 98.9687 119.103 99.3767 119.103 99.9207C119.103 100.417 119.263 100.793 119.583 101.049C119.903 101.289 120.319 101.481 120.831 101.625C121.343 101.753 121.879 101.881 122.439 102.009C122.999 102.121 123.527 102.281 124.023 102.489C124.535 102.681 124.951 102.969 125.271 103.353C125.607 103.737 125.775 104.273 125.775 104.961C125.775 105.569 125.591 106.073 125.223 106.473C124.855 106.857 124.359 107.137 123.735 107.313C123.127 107.489 122.455 107.577 121.719 107.577ZM135.484 107.337C134.972 107.337 134.644 107.193 134.5 106.905C134.356 106.617 134.284 106.273 134.284 105.873V98.4807H132.676V97.5927C133.252 97.5927 133.652 97.5607 133.876 97.4967C134.1 97.4167 134.236 97.2007 134.284 96.8487C134.332 96.4967 134.356 95.9047 134.356 95.0727H135.34V97.5927H137.62V98.4807H135.34V106.401H137.62V107.337H135.484ZM140.014 107.337V97.5927H140.95L141.094 100.089C141.254 99.4007 141.63 98.8087 142.222 98.3127C142.814 97.8167 143.646 97.5767 144.718 97.5927H145.246V98.8167H144.718C143.63 98.8167 142.83 98.9927 142.318 99.3447C141.806 99.6807 141.47 100.137 141.31 100.713C141.166 101.289 141.094 101.929 141.094 102.633V107.337H140.014ZM149.978 107.553C149.082 107.553 148.338 107.329 147.746 106.881C147.154 106.433 146.714 105.833 146.426 105.081C146.138 104.313 145.994 103.465 145.994 102.537C145.994 101.577 146.138 100.721 146.426 99.9687C146.73 99.2007 147.178 98.6007 147.77 98.1687C148.362 97.7207 149.098 97.4967 149.978 97.4967C150.922 97.4967 151.674 97.7287 152.234 98.1927C152.794 98.6407 153.194 99.1607 153.434 99.7527H153.482V97.5927H154.586V107.337H153.674L153.482 105.321H153.434C153.178 105.913 152.77 106.433 152.21 106.881C151.65 107.329 150.906 107.553 149.978 107.553ZM150.386 106.545C151.41 106.545 152.178 106.193 152.69 105.489C153.202 104.785 153.458 103.809 153.458 102.561C153.458 101.233 153.186 100.233 152.642 99.5607C152.114 98.8887 151.362 98.5527 150.386 98.5527C149.25 98.5527 148.418 98.9367 147.89 99.7047C147.362 100.457 147.098 101.401 147.098 102.537C147.098 103.721 147.37 104.689 147.914 105.441C148.458 106.177 149.282 106.545 150.386 106.545ZM157.468 96.5607C157.196 96.5767 157.012 96.5047 156.916 96.3447C156.82 96.1847 156.772 95.9927 156.772 95.7687C156.772 95.5607 156.82 95.3847 156.916 95.2407C157.012 95.0967 157.196 95.0247 157.468 95.0247C157.724 95.0247 157.9 95.0967 157.996 95.2407C158.092 95.3847 158.14 95.5607 158.14 95.7687C158.14 96.0087 158.092 96.2007 157.996 96.3447C157.9 96.4887 157.724 96.5607 157.468 96.5607ZM156.892 107.337V97.5927H157.972V107.337H156.892ZM160.303 107.337V97.6167H161.215L161.407 100.185H161.455C161.487 100.073 161.567 99.8807 161.695 99.6087C161.823 99.3367 162.023 99.0487 162.295 98.7447C162.567 98.4247 162.927 98.1527 163.375 97.9287C163.823 97.7047 164.383 97.5927 165.055 97.5927C165.887 97.5927 166.551 97.7447 167.047 98.0487C167.543 98.3367 167.919 98.7207 168.175 99.2007C168.431 99.6807 168.599 100.209 168.679 100.785C168.759 101.361 168.799 101.937 168.799 102.513V107.337H167.719V102.489C167.719 101.305 167.511 100.361 167.095 99.6567C166.695 98.9527 165.943 98.6007 164.839 98.6007C164.055 98.6007 163.407 98.7927 162.895 99.1767C162.399 99.5447 162.023 100.049 161.767 100.689C161.527 101.313 161.407 101.993 161.407 102.729V107.337H160.303ZM175.1 107.577C174.06 107.577 173.196 107.329 172.508 106.833C171.836 106.337 171.332 105.705 170.996 104.937C170.66 104.153 170.5 103.345 170.516 102.513C170.516 101.649 170.692 100.841 171.044 100.089C171.396 99.3367 171.908 98.7367 172.58 98.2887C173.268 97.8247 174.1 97.5927 175.076 97.5927C176.292 97.5927 177.292 97.9927 178.076 98.7927C178.876 99.5767 179.324 100.633 179.42 101.961C179.436 102.041 179.444 102.137 179.444 102.249C179.444 102.361 179.444 102.465 179.444 102.561H171.572C171.572 103.793 171.876 104.777 172.484 105.513C173.092 106.249 173.964 106.617 175.1 106.617C175.916 106.617 176.62 106.401 177.212 105.969C177.82 105.537 178.196 104.953 178.34 104.217H179.42C179.228 105.209 178.74 106.017 177.956 106.641C177.188 107.265 176.236 107.577 175.1 107.577ZM171.644 101.841H178.316C178.3 101.425 178.18 100.961 177.956 100.449C177.748 99.9367 177.404 99.4887 176.924 99.1047C176.46 98.7207 175.844 98.5287 175.076 98.5287C174.02 98.5287 173.212 98.8567 172.652 99.5127C172.092 100.169 171.756 100.945 171.644 101.841ZM186.004 107.577C185.076 107.577 184.284 107.361 183.628 106.929C182.988 106.481 182.5 105.881 182.164 105.129C181.828 104.361 181.66 103.513 181.66 102.585C181.66 101.641 181.828 100.793 182.164 100.041C182.516 99.2887 183.012 98.6967 183.652 98.2647C184.308 97.8167 185.1 97.5927 186.028 97.5927C186.7 97.5927 187.26 97.7127 187.708 97.9527C188.156 98.1767 188.516 98.4487 188.788 98.7687C189.076 99.0727 189.292 99.3687 189.436 99.6567C189.58 99.9287 189.668 100.121 189.7 100.233H189.748L189.772 93.8247H190.876V107.337H189.964L189.772 104.961H189.724C189.676 105.073 189.572 105.265 189.412 105.537C189.268 105.809 189.052 106.105 188.764 106.425C188.476 106.745 188.1 107.017 187.636 107.241C187.188 107.465 186.644 107.577 186.004 107.577ZM186.148 106.545C187.14 106.545 187.98 106.201 188.668 105.513C189.356 104.825 189.7 103.849 189.7 102.585C189.7 101.353 189.372 100.393 188.716 99.7047C188.076 99.0007 187.276 98.6487 186.316 98.6487C185.516 98.6487 184.852 98.8407 184.324 99.2247C183.796 99.5927 183.396 100.081 183.124 100.689C182.868 101.281 182.74 101.913 182.74 102.585C182.74 103.257 182.86 103.897 183.1 104.505C183.34 105.113 183.708 105.609 184.204 105.993C184.7 106.361 185.348 106.545 186.148 106.545Z" fill="black"/>
<path d="M464.152 107.577C462.92 107.577 461.808 107.313 460.816 106.785C459.84 106.257 459.064 105.481 458.488 104.457C457.928 103.417 457.648 102.129 457.648 100.593C457.664 99.0407 457.944 97.7447 458.488 96.7047C459.048 95.6647 459.824 94.8887 460.816 94.3767C461.808 93.8487 462.952 93.5847 464.248 93.5847C465.816 93.5847 467.128 94.0087 468.184 94.8567C469.256 95.7047 469.936 96.9207 470.224 98.5047H469.096C468.856 97.2247 468.296 96.2567 467.416 95.6007C466.536 94.9287 465.48 94.5927 464.248 94.5927C462.552 94.5927 461.208 95.1047 460.216 96.1287C459.24 97.1527 458.752 98.6247 458.752 100.545C458.752 102.529 459.232 104.033 460.192 105.057C461.168 106.065 462.488 106.569 464.152 106.569C465.512 106.569 466.632 106.233 467.512 105.561C468.392 104.889 468.944 103.929 469.168 102.681H470.344C470.04 104.233 469.36 105.441 468.304 106.305C467.248 107.153 465.864 107.577 464.152 107.577ZM476.459 107.577C474.939 107.577 473.795 107.113 473.027 106.185C472.275 105.241 471.899 104.049 471.899 102.609C471.899 101.137 472.283 99.9367 473.051 99.0087C473.819 98.0647 474.955 97.5927 476.459 97.5927C477.931 97.5927 479.051 98.0567 479.819 98.9847C480.603 99.8967 480.995 101.105 480.995 102.609C480.995 103.553 480.827 104.401 480.491 105.153C480.171 105.889 479.675 106.481 479.003 106.929C478.347 107.361 477.499 107.577 476.459 107.577ZM476.459 106.593C477.355 106.593 478.051 106.393 478.547 105.993C479.043 105.593 479.387 105.089 479.579 104.481C479.787 103.857 479.891 103.225 479.891 102.585C479.891 101.929 479.787 101.297 479.579 100.689C479.387 100.065 479.043 99.5527 478.547 99.1527C478.051 98.7367 477.355 98.5287 476.459 98.5287C475.563 98.5287 474.867 98.7367 474.371 99.1527C473.875 99.5527 473.523 100.065 473.315 100.689C473.107 101.297 473.003 101.929 473.003 102.585C473.003 103.225 473.107 103.857 473.315 104.481C473.523 105.089 473.875 105.593 474.371 105.993C474.867 106.393 475.563 106.593 476.459 106.593ZM486.687 107.577C485.663 107.577 484.879 107.345 484.335 106.881C483.791 106.417 483.415 105.817 483.207 105.081C483.015 104.329 482.919 103.529 482.919 102.681V97.5927H483.999V102.681C483.999 103.417 484.071 104.081 484.215 104.673C484.375 105.249 484.663 105.713 485.079 106.065C485.511 106.401 486.135 106.569 486.951 106.569C487.719 106.569 488.327 106.393 488.775 106.041C489.239 105.673 489.583 105.209 489.807 104.649C490.031 104.073 490.159 103.465 490.191 102.825L490.215 97.5927H491.319V107.337H490.407L490.215 105.009H490.167C490.071 105.345 489.879 105.713 489.591 106.113C489.303 106.513 488.919 106.857 488.439 107.145C487.975 107.433 487.391 107.577 486.687 107.577ZM493.491 107.337V97.6167H494.403L494.595 100.185H494.643C494.675 100.073 494.755 99.8807 494.883 99.6087C495.011 99.3367 495.211 99.0487 495.483 98.7447C495.755 98.4247 496.115 98.1527 496.563 97.9287C497.011 97.7047 497.571 97.5927 498.243 97.5927C499.075 97.5927 499.739 97.7447 500.235 98.0487C500.731 98.3367 501.107 98.7207 501.363 99.2007C501.619 99.6807 501.787 100.209 501.867 100.785C501.947 101.361 501.987 101.937 501.987 102.513V107.337H500.907V102.489C500.907 101.305 500.699 100.361 500.283 99.6567C499.883 98.9527 499.131 98.6007 498.027 98.6007C497.243 98.6007 496.595 98.7927 496.083 99.1767C495.587 99.5447 495.211 100.049 494.955 100.689C494.715 101.313 494.595 101.993 494.595 102.729V107.337H493.491ZM506.008 107.337C505.496 107.337 505.168 107.193 505.024 106.905C504.88 106.617 504.808 106.273 504.808 105.873V98.4807H503.2V97.5927C503.776 97.5927 504.176 97.5607 504.4 97.4967C504.624 97.4167 504.76 97.2007 504.808 96.8487C504.856 96.4967 504.88 95.9047 504.88 95.0727H505.864V97.5927H508.144V98.4807H505.864V106.401H508.144V107.337H506.008ZM510.537 107.337V97.5927H511.473L511.617 100.089C511.777 99.4007 512.153 98.8087 512.745 98.3127C513.337 97.8167 514.169 97.5767 515.241 97.5927H515.769V98.8167H515.241C514.153 98.8167 513.353 98.9927 512.841 99.3447C512.329 99.6807 511.993 100.137 511.833 100.713C511.689 101.289 511.617 101.929 511.617 102.633V107.337H510.537ZM518.077 96.5607C517.805 96.5767 517.621 96.5047 517.525 96.3447C517.429 96.1847 517.381 95.9927 517.381 95.7687C517.381 95.5607 517.429 95.3847 517.525 95.2407C517.621 95.0967 517.805 95.0247 518.077 95.0247C518.333 95.0247 518.509 95.0967 518.605 95.2407C518.701 95.3847 518.749 95.5607 518.749 95.7687C518.749 96.0087 518.701 96.2007 518.605 96.3447C518.509 96.4887 518.333 96.5607 518.077 96.5607ZM517.501 107.337V97.5927H518.581V107.337H517.501ZM525.257 107.577C524.217 107.577 523.353 107.329 522.665 106.833C521.993 106.337 521.489 105.705 521.153 104.937C520.817 104.153 520.657 103.345 520.673 102.513C520.673 101.649 520.849 100.841 521.201 100.089C521.553 99.3367 522.065 98.7367 522.737 98.2887C523.425 97.8247 524.257 97.5927 525.233 97.5927C526.449 97.5927 527.449 97.9927 528.233 98.7927C529.033 99.5767 529.481 100.633 529.577 101.961C529.593 102.041 529.601 102.137 529.601 102.249C529.601 102.361 529.601 102.465 529.601 102.561H521.729C521.729 103.793 522.033 104.777 522.641 105.513C523.249 106.249 524.121 106.617 525.257 106.617C526.073 106.617 526.777 106.401 527.369 105.969C527.977 105.537 528.353 104.953 528.497 104.217H529.577C529.385 105.209 528.897 106.017 528.113 106.641C527.345 107.265 526.393 107.577 525.257 107.577ZM521.801 101.841H528.473C528.457 101.425 528.337 100.961 528.113 100.449C527.905 99.9367 527.561 99.4887 527.081 99.1047C526.617 98.7207 526.001 98.5287 525.233 98.5287C524.177 98.5287 523.369 98.8567 522.809 99.5127C522.249 100.169 521.913 100.945 521.801 101.841ZM535.32 107.577C534.504 107.577 533.84 107.441 533.328 107.169C532.816 106.881 532.424 106.545 532.152 106.161C531.88 105.777 531.688 105.409 531.576 105.057C531.48 104.705 531.432 104.449 531.432 104.289H532.512C532.512 104.305 532.52 104.441 532.536 104.697C532.568 104.937 532.664 105.217 532.824 105.537C532.984 105.857 533.256 106.137 533.64 106.377C534.04 106.601 534.608 106.713 535.344 106.713C535.856 106.713 536.336 106.657 536.784 106.545C537.248 106.417 537.616 106.225 537.888 105.969C538.176 105.697 538.32 105.345 538.32 104.913C538.304 104.401 538.136 104.009 537.816 103.737C537.496 103.449 537.08 103.233 536.568 103.089C536.056 102.945 535.52 102.817 534.96 102.705C534.4 102.593 533.864 102.441 533.352 102.249C532.856 102.057 532.448 101.777 532.128 101.409C531.824 101.041 531.68 100.537 531.696 99.8967C531.696 99.1447 532.048 98.5287 532.752 98.0487C533.456 97.5687 534.36 97.3287 535.464 97.3287C535.88 97.3287 536.312 97.3767 536.76 97.4727C537.224 97.5687 537.656 97.7367 538.056 97.9767C538.456 98.2167 538.776 98.5527 539.016 98.9847C539.256 99.4007 539.36 99.9367 539.328 100.593H538.272C538.304 100.097 538.224 99.6967 538.032 99.3927C537.84 99.0727 537.584 98.8327 537.264 98.6727C536.96 98.5127 536.64 98.4087 536.304 98.3607C535.968 98.2967 535.664 98.2647 535.392 98.2647C534.64 98.2647 534 98.4087 533.472 98.6967C532.96 98.9687 532.704 99.3767 532.704 99.9207C532.704 100.417 532.864 100.793 533.184 101.049C533.504 101.289 533.92 101.481 534.432 101.625C534.944 101.753 535.48 101.881 536.04 102.009C536.6 102.121 537.128 102.281 537.624 102.489C538.136 102.681 538.552 102.969 538.872 103.353C539.208 103.737 539.376 104.273 539.376 104.961C539.376 105.569 539.192 106.073 538.824 106.473C538.456 106.857 537.96 107.137 537.336 107.313C536.728 107.489 536.056 107.577 535.32 107.577Z" fill="black"/>
<path d="M474.528 68.48C472.384 68.48 470.576 68.112 469.104 67.376C467.632 66.64 466.48 65.696 465.648 64.544C464.816 63.36 464.272 62.096 464.016 60.752L468.864 60.08C468.896 60.304 469.008 60.656 469.2 61.136C469.424 61.584 469.744 62.064 470.16 62.576C470.608 63.056 471.184 63.472 471.888 63.824C472.624 64.176 473.552 64.352 474.672 64.352C476.464 64.352 477.84 63.824 478.8 62.768C479.76 61.712 480.288 60.528 480.384 59.216C480.48 58.288 480.336 57.376 479.952 56.48C479.568 55.584 478.944 54.848 478.08 54.272C477.216 53.696 476.128 53.408 474.816 53.408C473.6 53.408 472.624 53.632 471.888 54.08C471.184 54.496 470.672 54.928 470.352 55.376C470.032 55.824 469.856 56.064 469.824 56.096L464.784 55.232L466.272 40.976H483.936V45.2H469.68L468.768 53.744C468.768 53.744 468.896 53.568 469.152 53.216C469.44 52.832 469.872 52.4 470.448 51.92C471.056 51.44 471.824 51.024 472.752 50.672C473.712 50.288 474.864 50.096 476.208 50.096C478.352 50.096 480.112 50.544 481.488 51.44C482.864 52.336 483.856 53.488 484.464 54.896C485.104 56.304 485.36 57.776 485.232 59.312C485.104 60.848 484.608 62.32 483.744 63.728C482.88 65.104 481.664 66.24 480.096 67.136C478.528 68.032 476.672 68.48 474.528 68.48Z" fill="black"/>
<path d="M617.496 106.401H625.392V107.337H616.392V93.8247H625.176V94.8087H617.496V100.017H623.64V100.977H617.496V106.401ZM630.883 107.577C630.067 107.577 629.403 107.441 628.891 107.169C628.379 106.881 627.987 106.545 627.715 106.161C627.443 105.777 627.251 105.409 627.139 105.057C627.043 104.705 626.995 104.449 626.995 104.289H628.075C628.075 104.305 628.083 104.441 628.099 104.697C628.131 104.937 628.227 105.217 628.387 105.537C628.547 105.857 628.819 106.137 629.203 106.377C629.603 106.601 630.171 106.713 630.907 106.713C631.419 106.713 631.899 106.657 632.347 106.545C632.811 106.417 633.179 106.225 633.451 105.969C633.739 105.697 633.883 105.345 633.883 104.913C633.867 104.401 633.699 104.009 633.379 103.737C633.059 103.449 632.643 103.233 632.131 103.089C631.619 102.945 631.083 102.817 630.523 102.705C629.963 102.593 629.427 102.441 628.915 102.249C628.419 102.057 628.011 101.777 627.691 101.409C627.387 101.041 627.243 100.537 627.259 99.8967C627.259 99.1447 627.611 98.5287 628.315 98.0487C629.019 97.5687 629.923 97.3287 631.027 97.3287C631.443 97.3287 631.875 97.3767 632.323 97.4727C632.787 97.5687 633.219 97.7367 633.619 97.9767C634.019 98.2167 634.339 98.5527 634.579 98.9847C634.819 99.4007 634.923 99.9367 634.891 100.593H633.835C633.867 100.097 633.787 99.6967 633.595 99.3927C633.403 99.0727 633.147 98.8327 632.827 98.6727C632.523 98.5127 632.203 98.4087 631.867 98.3607C631.531 98.2967 631.227 98.2647 630.955 98.2647C630.203 98.2647 629.563 98.4087 629.035 98.6967C628.523 98.9687 628.267 99.3767 628.267 99.9207C628.267 100.417 628.427 100.793 628.747 101.049C629.067 101.289 629.483 101.481 629.995 101.625C630.507 101.753 631.043 101.881 631.603 102.009C632.163 102.121 632.691 102.281 633.187 102.489C633.699 102.681 634.115 102.969 634.435 103.353C634.771 103.737 634.939 104.273 634.939 104.961C634.939 105.569 634.755 106.073 634.387 106.473C634.019 106.857 633.523 107.137 632.899 107.313C632.291 107.489 631.619 107.577 630.883 107.577ZM638.742 107.337C638.23 107.337 637.902 107.193 637.758 106.905C637.614 106.617 637.542 106.273 637.542 105.873V98.4807H635.934V97.5927C636.51 97.5927 636.91 97.5607 637.134 97.4967C637.358 97.4167 637.494 97.2007 637.542 96.8487C637.59 96.4967 637.614 95.9047 637.614 95.0727H638.598V97.5927H640.878V98.4807H638.598V106.401H640.878V107.337H638.742ZM646.415 107.553C645.519 107.553 644.775 107.329 644.183 106.881C643.591 106.433 643.151 105.833 642.863 105.081C642.575 104.313 642.431 103.465 642.431 102.537C642.431 101.577 642.575 100.721 642.863 99.9687C643.167 99.2007 643.615 98.6007 644.207 98.1687C644.799 97.7207 645.535 97.4967 646.415 97.4967C647.359 97.4967 648.111 97.7287 648.671 98.1927C649.231 98.6407 649.631 99.1607 649.871 99.7527H649.919V97.5927H651.023V107.337H650.111L649.919 105.321H649.871C649.615 105.913 649.207 106.433 648.647 106.881C648.087 107.329 647.343 107.553 646.415 107.553ZM646.823 106.545C647.847 106.545 648.615 106.193 649.127 105.489C649.639 104.785 649.895 103.809 649.895 102.561C649.895 101.233 649.623 100.233 649.079 99.5607C648.551 98.8887 647.799 98.5527 646.823 98.5527C645.687 98.5527 644.855 98.9367 644.327 99.7047C643.799 100.457 643.535 101.401 643.535 102.537C643.535 103.721 643.807 104.689 644.351 105.441C644.895 106.177 645.719 106.545 646.823 106.545ZM657.962 107.577C657.322 107.577 656.77 107.465 656.306 107.241C655.858 107.017 655.49 106.745 655.202 106.425C654.914 106.105 654.69 105.809 654.53 105.537C654.386 105.265 654.298 105.073 654.266 104.961H654.218L654.026 107.337H653.09V93.8247H654.218L654.242 100.233H654.29C654.322 100.121 654.402 99.9287 654.53 99.6567C654.674 99.3687 654.882 99.0727 655.154 98.7687C655.442 98.4487 655.81 98.1767 656.258 97.9527C656.722 97.7127 657.29 97.5927 657.962 97.5927C658.89 97.5927 659.674 97.8167 660.314 98.2647C660.97 98.7127 661.466 99.3127 661.802 100.065C662.154 100.817 662.33 101.657 662.33 102.585C662.33 103.529 662.154 104.377 661.802 105.129C661.466 105.881 660.97 106.481 660.314 106.929C659.674 107.361 658.89 107.577 657.962 107.577ZM657.818 106.545C658.618 106.545 659.266 106.361 659.762 105.993C660.274 105.609 660.642 105.113 660.866 104.505C661.106 103.897 661.226 103.257 661.226 102.585C661.226 101.913 661.098 101.281 660.842 100.689C660.586 100.081 660.194 99.5927 659.666 99.2247C659.138 98.8407 658.474 98.6487 657.674 98.6487C656.698 98.6487 655.882 99.0007 655.226 99.7047C654.586 100.393 654.266 101.353 654.266 102.585C654.266 103.849 654.61 104.825 655.298 105.513C656.002 106.201 656.842 106.545 657.818 106.545ZM664.389 107.337V93.8247H665.493V107.337H664.389ZM668.741 96.5607C668.469 96.5767 668.285 96.5047 668.189 96.3447C668.093 96.1847 668.045 95.9927 668.045 95.7687C668.045 95.5607 668.093 95.3847 668.189 95.2407C668.285 95.0967 668.469 95.0247 668.741 95.0247C668.997 95.0247 669.173 95.0967 669.269 95.2407C669.365 95.3847 669.413 95.5607 669.413 95.7687C669.413 96.0087 669.365 96.2007 669.269 96.3447C669.173 96.4887 668.997 96.5607 668.741 96.5607ZM668.165 107.337V97.5927H669.245V107.337H668.165ZM675.297 107.577C674.481 107.577 673.817 107.441 673.305 107.169C672.793 106.881 672.401 106.545 672.129 106.161C671.857 105.777 671.665 105.409 671.553 105.057C671.457 104.705 671.409 104.449 671.409 104.289H672.489C672.489 104.305 672.497 104.441 672.513 104.697C672.545 104.937 672.641 105.217 672.801 105.537C672.961 105.857 673.233 106.137 673.617 106.377C674.017 106.601 674.585 106.713 675.321 106.713C675.833 106.713 676.313 106.657 676.761 106.545C677.225 106.417 677.593 106.225 677.865 105.969C678.153 105.697 678.297 105.345 678.297 104.913C678.281 104.401 678.113 104.009 677.793 103.737C677.473 103.449 677.057 103.233 676.545 103.089C676.033 102.945 675.497 102.817 674.937 102.705C674.377 102.593 673.841 102.441 673.329 102.249C672.833 102.057 672.425 101.777 672.105 101.409C671.801 101.041 671.657 100.537 671.673 99.8967C671.673 99.1447 672.025 98.5287 672.729 98.0487C673.433 97.5687 674.337 97.3287 675.441 97.3287C675.857 97.3287 676.289 97.3767 676.737 97.4727C677.201 97.5687 677.633 97.7367 678.033 97.9767C678.433 98.2167 678.753 98.5527 678.993 98.9847C679.233 99.4007 679.337 99.9367 679.305 100.593H678.249C678.281 100.097 678.201 99.6967 678.009 99.3927C677.817 99.0727 677.561 98.8327 677.241 98.6727C676.937 98.5127 676.617 98.4087 676.281 98.3607C675.945 98.2967 675.641 98.2647 675.369 98.2647C674.617 98.2647 673.977 98.4087 673.449 98.6967C672.937 98.9687 672.681 99.3767 672.681 99.9207C672.681 100.417 672.841 100.793 673.161 101.049C673.481 101.289 673.897 101.481 674.409 101.625C674.921 101.753 675.457 101.881 676.017 102.009C676.577 102.121 677.105 102.281 677.601 102.489C678.113 102.681 678.529 102.969 678.849 103.353C679.185 103.737 679.353 104.273 679.353 104.961C679.353 105.569 679.169 106.073 678.801 106.473C678.433 106.857 677.937 107.137 677.313 107.313C676.705 107.489 676.033 107.577 675.297 107.577ZM681.14 107.337V93.8247H682.244V100.185H682.292C682.324 100.073 682.404 99.8807 682.532 99.6087C682.66 99.3367 682.86 99.0487 683.132 98.7447C683.404 98.4247 683.756 98.1527 684.188 97.9287C684.636 97.7047 685.188 97.5927 685.844 97.5927C686.676 97.5927 687.34 97.7447 687.836 98.0487C688.348 98.3367 688.732 98.7207 688.988 99.2007C689.244 99.6807 689.412 100.209 689.492 100.785C689.572 101.361 689.612 101.937 689.612 102.513V107.337H688.556V102.489C688.556 101.305 688.348 100.361 687.932 99.6567C687.516 98.9527 686.756 98.6007 685.652 98.6007C684.884 98.6007 684.244 98.7927 683.732 99.1767C683.22 99.5447 682.844 100.049 682.604 100.689C682.364 101.313 682.244 101.993 682.244 102.729V107.337H681.14ZM695.983 107.577C694.943 107.577 694.079 107.329 693.391 106.833C692.719 106.337 692.215 105.705 691.879 104.937C691.543 104.153 691.383 103.345 691.399 102.513C691.399 101.649 691.575 100.841 691.927 100.089C692.279 99.3367 692.791 98.7367 693.463 98.2887C694.151 97.8247 694.983 97.5927 695.959 97.5927C697.175 97.5927 698.175 97.9927 698.959 98.7927C699.759 99.5767 700.207 100.633 700.303 101.961C700.319 102.041 700.327 102.137 700.327 102.249C700.327 102.361 700.327 102.465 700.327 102.561H692.455C692.455 103.793 692.759 104.777 693.367 105.513C693.975 106.249 694.847 106.617 695.983 106.617C696.799 106.617 697.503 106.401 698.095 105.969C698.703 105.537 699.079 104.953 699.223 104.217H700.303C700.111 105.209 699.623 106.017 698.839 106.641C698.071 107.265 697.119 107.577 695.983 107.577ZM692.527 101.841H699.199C699.183 101.425 699.063 100.961 698.839 100.449C698.631 99.9367 698.287 99.4887 697.807 99.1047C697.343 98.7207 696.727 98.5287 695.959 98.5287C694.903 98.5287 694.095 98.8567 693.535 99.5127C692.975 100.169 692.639 100.945 692.527 101.841ZM706.887 107.577C705.959 107.577 705.167 107.361 704.511 106.929C703.871 106.481 703.383 105.881 703.047 105.129C702.711 104.361 702.543 103.513 702.543 102.585C702.543 101.641 702.711 100.793 703.047 100.041C703.399 99.2887 703.895 98.6967 704.535 98.2647C705.191 97.8167 705.983 97.5927 706.911 97.5927C707.583 97.5927 708.143 97.7127 708.591 97.9527C709.039 98.1767 709.399 98.4487 709.671 98.7687C709.959 99.0727 710.175 99.3687 710.319 99.6567C710.463 99.9287 710.551 100.121 710.583 100.233H710.631L710.655 93.8247H711.759V107.337H710.847L710.655 104.961H710.607C710.559 105.073 710.455 105.265 710.295 105.537C710.151 105.809 709.935 106.105 709.647 106.425C709.359 106.745 708.983 107.017 708.519 107.241C708.071 107.465 707.527 107.577 706.887 107.577ZM707.031 106.545C708.023 106.545 708.863 106.201 709.551 105.513C710.239 104.825 710.583 103.849 710.583 102.585C710.583 101.353 710.255 100.393 709.599 99.7047C708.959 99.0007 708.159 98.6487 707.199 98.6487C706.399 98.6487 705.735 98.8407 705.207 99.2247C704.679 99.5927 704.279 100.081 704.007 100.689C703.751 101.281 703.623 101.913 703.623 102.585C703.623 103.257 703.743 103.897 703.983 104.505C704.223 105.113 704.591 105.609 705.087 105.993C705.583 106.361 706.231 106.545 707.031 106.545Z" fill="black"/>
<path d="M622.016 68V63.92C622.016 63.92 622.416 63.712 623.216 63.296C624.048 62.848 625.088 62.256 626.336 61.52C627.584 60.752 628.896 59.888 630.272 58.928C631.648 57.936 632.912 56.88 634.064 55.76C635.216 54.608 636.096 53.424 636.704 52.208C637.44 50.736 637.664 49.44 637.376 48.32C637.12 47.2 636.528 46.336 635.6 45.728C634.672 45.088 633.568 44.768 632.288 44.768C630.56 44.768 629.184 45.344 628.16 46.496C627.136 47.648 626.784 49.424 627.104 51.824L622.544 51.2C622.32 48.992 622.624 47.104 623.456 45.536C624.32 43.968 625.568 42.768 627.2 41.936C628.832 41.072 630.704 40.64 632.816 40.64C634.544 40.64 636.096 40.96 637.472 41.6C638.848 42.24 639.952 43.12 640.784 44.24C641.648 45.36 642.144 46.64 642.272 48.08C642.4 49.52 642.064 51.056 641.264 52.688C640.656 53.904 639.808 55.072 638.72 56.192C637.664 57.28 636.512 58.272 635.264 59.168C634.048 60.064 632.848 60.848 631.664 61.52C630.512 62.16 629.504 62.688 628.64 63.104C627.776 63.488 627.2 63.712 626.912 63.776H642.752V68H622.016ZM657.947 68.672C653.979 68.672 651.035 67.408 649.115 64.88C647.195 62.32 646.235 58.88 646.235 54.56C646.235 51.712 646.635 49.248 647.435 47.168C648.267 45.056 649.547 43.424 651.275 42.272C653.003 41.088 655.227 40.496 657.947 40.496C661.979 40.496 664.939 41.776 666.827 44.336C668.715 46.864 669.659 50.272 669.659 54.56C669.659 57.344 669.243 59.808 668.411 61.952C667.579 64.064 666.299 65.712 664.571 66.896C662.843 68.08 660.635 68.672 657.947 68.672ZM657.947 64.592C660.411 64.592 662.219 63.744 663.371 62.048C664.523 60.32 665.099 57.824 665.099 54.56C665.099 51.296 664.523 48.816 663.371 47.12C662.251 45.424 660.443 44.576 657.947 44.576C655.515 44.576 653.707 45.392 652.523 47.024C651.371 48.656 650.795 51.168 650.795 54.56C650.795 57.824 651.355 60.32 652.475 62.048C653.627 63.744 655.451 64.592 657.947 64.592ZM687.127 63.776V68H674.215V63.776H678.631V46.88C678.375 48.032 677.959 48.928 677.383 49.568C676.807 50.176 676.199 50.608 675.559 50.864C674.919 51.12 674.343 51.28 673.831 51.344C673.319 51.376 672.983 51.392 672.823 51.392V46.064C673.015 46.096 673.431 46.096 674.071 46.064C674.711 46 675.399 45.808 676.135 45.488C676.903 45.168 677.575 44.656 678.151 43.952C678.727 43.248 679.047 42.256 679.111 40.976H683.431V63.776H687.127ZM702.581 68.48C699.989 68.48 697.845 67.872 696.149 66.656C694.485 65.44 693.237 63.808 692.405 61.76C691.605 59.68 691.205 57.408 691.205 54.944C691.205 53.088 691.461 51.296 691.973 49.568C692.517 47.84 693.285 46.304 694.277 44.96C695.301 43.584 696.565 42.496 698.069 41.696C699.605 40.896 701.365 40.496 703.349 40.496C705.301 40.496 706.885 40.8 708.101 41.408C709.317 41.984 710.245 42.656 710.885 43.424C711.557 44.192 712.021 44.88 712.277 45.488C712.533 46.064 712.661 46.352 712.661 46.352L707.813 47.264C707.813 47.264 707.669 47.056 707.381 46.64C707.125 46.224 706.645 45.808 705.941 45.392C705.269 44.976 704.309 44.768 703.061 44.768C701.845 44.768 700.645 45.184 699.461 46.016C698.277 46.848 697.333 48.144 696.629 49.904C695.957 51.632 695.765 53.872 696.053 56.624C696.085 56.304 696.245 55.808 696.533 55.136C696.853 54.464 697.333 53.792 697.973 53.12C698.645 52.416 699.509 51.824 700.565 51.344C701.621 50.864 702.901 50.64 704.405 50.672C706.517 50.672 708.245 51.104 709.589 51.968C710.933 52.832 711.909 53.952 712.517 55.328C713.125 56.672 713.365 58.096 713.237 59.6C713.141 61.104 712.661 62.544 711.797 63.92C710.965 65.264 709.781 66.368 708.245 67.232C706.709 68.064 704.821 68.48 702.581 68.48ZM702.869 64.4C704.373 64.4 705.589 64.048 706.517 63.344C707.445 62.64 708.085 61.776 708.437 60.752C708.789 59.696 708.837 58.64 708.581 57.584C708.325 56.496 707.749 55.584 706.853 54.848C705.989 54.112 704.821 53.712 703.349 53.648C701.973 53.616 700.789 53.92 699.797 54.56C698.805 55.168 698.037 55.968 697.493 56.96C696.981 57.92 696.725 58.944 696.725 60.032C697.045 61.504 697.797 62.608 698.981 63.344C700.165 64.048 701.461 64.4 702.869 64.4Z" fill="black"/>
<path d="M293.152 107.577C291.92 107.577 290.808 107.313 289.816 106.785C288.84 106.257 288.064 105.481 287.488 104.457C286.928 103.417 286.648 102.129 286.648 100.593C286.664 99.0407 286.944 97.7447 287.488 96.7047C288.048 95.6647 288.824 94.8887 289.816 94.3767C290.808 93.8487 291.952 93.5847 293.248 93.5847C294.816 93.5847 296.128 94.0087 297.184 94.8567C298.256 95.7047 298.936 96.9207 299.224 98.5047H298.096C297.856 97.2247 297.296 96.2567 296.416 95.6007C295.536 94.9287 294.48 94.5927 293.248 94.5927C291.552 94.5927 290.208 95.1047 289.216 96.1287C288.24 97.1527 287.752 98.6247 287.752 100.545C287.752 102.529 288.232 104.033 289.192 105.057C290.168 106.065 291.488 106.569 293.152 106.569C294.512 106.569 295.632 106.233 296.512 105.561C297.392 104.889 297.944 103.929 298.168 102.681H299.344C299.04 104.233 298.36 105.441 297.304 106.305C296.248 107.153 294.864 107.577 293.152 107.577ZM305.459 107.577C303.939 107.577 302.795 107.113 302.027 106.185C301.275 105.241 300.899 104.049 300.899 102.609C300.899 101.137 301.283 99.9367 302.051 99.0087C302.819 98.0647 303.955 97.5927 305.459 97.5927C306.931 97.5927 308.051 98.0567 308.819 98.9847C309.603 99.8967 309.995 101.105 309.995 102.609C309.995 103.553 309.827 104.401 309.491 105.153C309.171 105.889 308.675 106.481 308.003 106.929C307.347 107.361 306.499 107.577 305.459 107.577ZM305.459 106.593C306.355 106.593 307.051 106.393 307.547 105.993C308.043 105.593 308.387 105.089 308.579 104.481C308.787 103.857 308.891 103.225 308.891 102.585C308.891 101.929 308.787 101.297 308.579 100.689C308.387 100.065 308.043 99.5527 307.547 99.1527C307.051 98.7367 306.355 98.5287 305.459 98.5287C304.563 98.5287 303.867 98.7367 303.371 99.1527C302.875 99.5527 302.523 100.065 302.315 100.689C302.107 101.297 302.003 101.929 302.003 102.585C302.003 103.225 302.107 103.857 302.315 104.481C302.523 105.089 302.875 105.593 303.371 105.993C303.867 106.393 304.563 106.593 305.459 106.593ZM311.967 107.337V97.5927H312.879L312.975 100.185H313.023C313.071 100.041 313.151 99.8327 313.263 99.5607C313.391 99.2727 313.575 98.9847 313.815 98.6967C314.055 98.3927 314.375 98.1367 314.775 97.9287C315.175 97.7047 315.671 97.5927 316.263 97.5927C316.903 97.5927 317.415 97.7207 317.799 97.9767C318.199 98.2167 318.511 98.5367 318.735 98.9367C318.959 99.3367 319.119 99.7527 319.215 100.185H319.263C319.311 100.041 319.399 99.8327 319.527 99.5607C319.671 99.2727 319.871 98.9847 320.127 98.6967C320.399 98.3927 320.743 98.1367 321.159 97.9287C321.575 97.7047 322.079 97.5927 322.671 97.5927C323.311 97.5927 323.831 97.7207 324.231 97.9767C324.631 98.2327 324.943 98.5607 325.167 98.9607C325.391 99.3447 325.551 99.7607 325.647 100.209C325.743 100.657 325.799 101.089 325.815 101.505C325.831 101.905 325.839 102.241 325.839 102.513V107.337H324.855V102.489C324.855 102.217 324.839 101.873 324.807 101.457C324.791 101.025 324.703 100.593 324.543 100.161C324.399 99.7127 324.159 99.3447 323.823 99.0567C323.487 98.7527 323.007 98.6007 322.383 98.6007C321.695 98.6007 321.135 98.7927 320.703 99.1767C320.271 99.5607 319.943 100.065 319.719 100.689C319.511 101.313 319.407 101.993 319.407 102.729V107.337H318.423V102.489C318.423 102.217 318.407 101.873 318.375 101.457C318.359 101.025 318.271 100.593 318.111 100.161C317.967 99.7127 317.727 99.3447 317.391 99.0567C317.055 98.7527 316.575 98.6007 315.951 98.6007C315.263 98.6007 314.703 98.7927 314.271 99.1767C313.839 99.5607 313.511 100.065 313.287 100.689C313.079 101.313 312.975 101.993 312.975 102.729V107.337H311.967ZM332.946 107.577C332.306 107.577 331.754 107.465 331.29 107.241C330.842 107.017 330.474 106.745 330.186 106.425C329.898 106.105 329.682 105.809 329.538 105.537C329.394 105.265 329.298 105.073 329.25 104.961H329.202V111.177H328.098V97.5927H329.034L329.226 100.233H329.274C329.306 100.121 329.386 99.9287 329.514 99.6567C329.658 99.3687 329.866 99.0727 330.138 98.7687C330.426 98.4487 330.794 98.1767 331.242 97.9527C331.706 97.7127 332.266 97.5927 332.922 97.5927C333.866 97.5927 334.658 97.8167 335.298 98.2647C335.954 98.7127 336.45 99.3127 336.786 100.065C337.138 100.817 337.314 101.665 337.314 102.609C337.314 103.553 337.138 104.401 336.786 105.153C336.434 105.905 335.93 106.497 335.274 106.929C334.634 107.361 333.858 107.577 332.946 107.577ZM332.826 106.545C333.626 106.545 334.274 106.361 334.77 105.993C335.282 105.609 335.65 105.113 335.874 104.505C336.114 103.897 336.234 103.257 336.234 102.585C336.234 101.913 336.098 101.281 335.826 100.689C335.57 100.081 335.178 99.5927 334.65 99.2247C334.122 98.8407 333.458 98.6487 332.658 98.6487C331.698 98.6487 330.89 99.0007 330.234 99.7047C329.594 100.393 329.274 101.353 329.274 102.585C329.274 103.849 329.618 104.825 330.306 105.513C330.994 106.201 331.834 106.545 332.826 106.545ZM342.47 107.553C341.574 107.553 340.83 107.329 340.238 106.881C339.646 106.433 339.206 105.833 338.918 105.081C338.63 104.313 338.486 103.465 338.486 102.537C338.486 101.577 338.63 100.721 338.918 99.9687C339.222 99.2007 339.67 98.6007 340.262 98.1687C340.854 97.7207 341.59 97.4967 342.47 97.4967C343.414 97.4967 344.166 97.7287 344.726 98.1927C345.286 98.6407 345.686 99.1607 345.926 99.7527H345.974V97.5927H347.078V107.337H346.166L345.974 105.321H345.926C345.67 105.913 345.262 106.433 344.702 106.881C344.142 107.329 343.398 107.553 342.47 107.553ZM342.878 106.545C343.902 106.545 344.67 106.193 345.182 105.489C345.694 104.785 345.95 103.809 345.95 102.561C345.95 101.233 345.678 100.233 345.134 99.5607C344.606 98.8887 343.854 98.5527 342.878 98.5527C341.742 98.5527 340.91 98.9367 340.382 99.7047C339.854 100.457 339.59 101.401 339.59 102.537C339.59 103.721 339.862 104.689 340.406 105.441C340.95 106.177 341.774 106.545 342.878 106.545ZM348.928 107.337V97.6167H349.84L350.032 100.185H350.08C350.112 100.073 350.192 99.8807 350.32 99.6087C350.448 99.3367 350.648 99.0487 350.92 98.7447C351.192 98.4247 351.552 98.1527 352 97.9287C352.448 97.7047 353.008 97.5927 353.68 97.5927C354.512 97.5927 355.176 97.7447 355.672 98.0487C356.168 98.3367 356.544 98.7207 356.8 99.2007C357.056 99.6807 357.224 100.209 357.304 100.785C357.384 101.361 357.424 101.937 357.424 102.513V107.337H356.344V102.489C356.344 101.305 356.136 100.361 355.72 99.6567C355.32 98.9527 354.568 98.6007 353.464 98.6007C352.68 98.6007 352.032 98.7927 351.52 99.1767C351.024 99.5447 350.648 100.049 350.392 100.689C350.152 101.313 350.032 101.993 350.032 102.729V107.337H348.928ZM360.413 96.5607C360.141 96.5767 359.957 96.5047 359.861 96.3447C359.765 96.1847 359.717 95.9927 359.717 95.7687C359.717 95.5607 359.765 95.3847 359.861 95.2407C359.957 95.0967 360.141 95.0247 360.413 95.0247C360.669 95.0247 360.845 95.0967 360.941 95.2407C361.037 95.3847 361.085 95.5607 361.085 95.7687C361.085 96.0087 361.037 96.2007 360.941 96.3447C360.845 96.4887 360.669 96.5607 360.413 96.5607ZM359.837 107.337V97.5927H360.917V107.337H359.837ZM367.593 107.577C366.553 107.577 365.689 107.329 365.001 106.833C364.329 106.337 363.825 105.705 363.489 104.937C363.153 104.153 362.993 103.345 363.009 102.513C363.009 101.649 363.185 100.841 363.537 100.089C363.889 99.3367 364.401 98.7367 365.073 98.2887C365.761 97.8247 366.593 97.5927 367.569 97.5927C368.785 97.5927 369.785 97.9927 370.569 98.7927C371.369 99.5767 371.817 100.633 371.913 101.961C371.929 102.041 371.937 102.137 371.937 102.249C371.937 102.361 371.937 102.465 371.937 102.561H364.065C364.065 103.793 364.369 104.777 364.977 105.513C365.585 106.249 366.457 106.617 367.593 106.617C368.409 106.617 369.113 106.401 369.705 105.969C370.313 105.537 370.689 104.953 370.833 104.217H371.913C371.721 105.209 371.233 106.017 370.449 106.641C369.681 107.265 368.729 107.577 367.593 107.577ZM364.137 101.841H370.809C370.793 101.425 370.673 100.961 370.449 100.449C370.241 99.9367 369.897 99.4887 369.417 99.1047C368.953 98.7207 368.337 98.5287 367.569 98.5287C366.513 98.5287 365.705 98.8567 365.145 99.5127C364.585 100.169 364.249 100.945 364.137 101.841ZM377.656 107.577C376.84 107.577 376.176 107.441 375.664 107.169C375.152 106.881 374.76 106.545 374.488 106.161C374.216 105.777 374.024 105.409 373.912 105.057C373.816 104.705 373.768 104.449 373.768 104.289H374.848C374.848 104.305 374.856 104.441 374.872 104.697C374.904 104.937 375 105.217 375.16 105.537C375.32 105.857 375.592 106.137 375.976 106.377C376.376 106.601 376.944 106.713 377.68 106.713C378.192 106.713 378.672 106.657 379.12 106.545C379.584 106.417 379.952 106.225 380.224 105.969C380.512 105.697 380.656 105.345 380.656 104.913C380.64 104.401 380.472 104.009 380.152 103.737C379.832 103.449 379.416 103.233 378.904 103.089C378.392 102.945 377.856 102.817 377.296 102.705C376.736 102.593 376.2 102.441 375.688 102.249C375.192 102.057 374.784 101.777 374.464 101.409C374.16 101.041 374.016 100.537 374.032 99.8967C374.032 99.1447 374.384 98.5287 375.088 98.0487C375.792 97.5687 376.696 97.3287 377.8 97.3287C378.216 97.3287 378.648 97.3767 379.096 97.4727C379.56 97.5687 379.992 97.7367 380.392 97.9767C380.792 98.2167 381.112 98.5527 381.352 98.9847C381.592 99.4007 381.696 99.9367 381.664 100.593H380.608C380.64 100.097 380.56 99.6967 380.368 99.3927C380.176 99.0727 379.92 98.8327 379.6 98.6727C379.296 98.5127 378.976 98.4087 378.64 98.3607C378.304 98.2967 378 98.2647 377.728 98.2647C376.976 98.2647 376.336 98.4087 375.808 98.6967C375.296 98.9687 375.04 99.3767 375.04 99.9207C375.04 100.417 375.2 100.793 375.52 101.049C375.84 101.289 376.256 101.481 376.768 101.625C377.28 101.753 377.816 101.881 378.376 102.009C378.936 102.121 379.464 102.281 379.96 102.489C380.472 102.681 380.888 102.969 381.208 103.353C381.544 103.737 381.712 104.273 381.712 104.961C381.712 105.569 381.528 106.073 381.16 106.473C380.792 106.857 380.296 107.137 379.672 107.313C379.064 107.489 378.392 107.577 377.656 107.577Z" fill="black"/>
<path d="M288.016 68V63.92C288.016 63.92 288.416 63.712 289.216 63.296C290.048 62.848 291.088 62.256 292.336 61.52C293.584 60.752 294.896 59.888 296.272 58.928C297.648 57.936 298.912 56.88 300.064 55.76C301.216 54.608 302.096 53.424 302.704 52.208C303.44 50.736 303.664 49.44 303.376 48.32C303.12 47.2 302.528 46.336 301.6 45.728C300.672 45.088 299.568 44.768 298.288 44.768C296.56 44.768 295.184 45.344 294.16 46.496C293.136 47.648 292.784 49.424 293.104 51.824L288.544 51.2C288.32 48.992 288.624 47.104 289.456 45.536C290.32 43.968 291.568 42.768 293.2 41.936C294.832 41.072 296.704 40.64 298.816 40.64C300.544 40.64 302.096 40.96 303.472 41.6C304.848 42.24 305.952 43.12 306.784 44.24C307.648 45.36 308.144 46.64 308.272 48.08C308.4 49.52 308.064 51.056 307.264 52.688C306.656 53.904 305.808 55.072 304.72 56.192C303.664 57.28 302.512 58.272 301.264 59.168C300.048 60.064 298.848 60.848 297.664 61.52C296.512 62.16 295.504 62.688 294.64 63.104C293.776 63.488 293.2 63.712 292.912 63.776H308.752V68H288.016ZM323.947 68.672C319.979 68.672 317.035 67.408 315.115 64.88C313.195 62.32 312.235 58.88 312.235 54.56C312.235 51.712 312.635 49.248 313.435 47.168C314.267 45.056 315.547 43.424 317.275 42.272C319.003 41.088 321.227 40.496 323.947 40.496C327.979 40.496 330.939 41.776 332.827 44.336C334.715 46.864 335.659 50.272 335.659 54.56C335.659 57.344 335.243 59.808 334.411 61.952C333.579 64.064 332.299 65.712 330.571 66.896C328.843 68.08 326.635 68.672 323.947 68.672ZM323.947 64.592C326.411 64.592 328.219 63.744 329.371 62.048C330.523 60.32 331.099 57.824 331.099 54.56C331.099 51.296 330.523 48.816 329.371 47.12C328.251 45.424 326.443 44.576 323.947 44.576C321.515 44.576 319.707 45.392 318.523 47.024C317.371 48.656 316.795 51.168 316.795 54.56C316.795 57.824 317.355 60.32 318.475 62.048C319.627 63.744 321.451 64.592 323.947 64.592ZM344.055 64.112V58.928H338.871V55.52H344.055V50.336H347.511V55.52H352.647V58.928H347.511V64.112H344.055Z" fill="black"/>
</g>
<defs>
<clipPath id="clip0_26_640">
<rect width="1312" height="145" rx="15" fill="white"/>
</clipPath>
</defs>
</svg>
